<?xml version="1.0" encoding="UTF-8" standalone="no"?>
<!-- Created with Inkscape (http://www.inkscape.org/) -->

<svg
   xmlns:dc="http://purl.org/dc/elements/1.1/"
   xmlns:cc="http://creativecommons.org/ns#"
   xmlns:rdf="http://www.w3.org/1999/02/22-rdf-syntax-ns#"
   xmlns:svg="http://www.w3.org/2000/svg"
   xmlns="http://www.w3.org/2000/svg"
   xmlns:sodipodi="http://sodipodi.sourceforge.net/DTD/sodipodi-0.dtd"
   xmlns:inkscape="http://www.inkscape.org/namespaces/inkscape"
   width="744.09448819"
   height="1052.3622047"
   id="svg2"
   version="1.1"
   inkscape:version="0.48.4 r9939"
   sodipodi:docname="Supp_5.pdf">
  <defs
     id="defs4">
    <clipPath
       id="clipPath3110"
       clipPathUnits="userSpaceOnUse">
      <path
         id="path3112"
         d="m 25,564 91,0 0,-546 -91,0 0,546 z" />
    </clipPath>
    <clipPath
       id="clipPath3100"
       clipPathUnits="userSpaceOnUse">
      <path
         id="path3102"
         d="m 25,43 850,0 0,-25 -850,0 0,25 z" />
    </clipPath>
    <clipPath
       id="clipPath3090"
       clipPathUnits="userSpaceOnUse">
      <path
         id="path3092"
         d="m 25,277 850,0 0,-259 -850,0 0,259 z" />
    </clipPath>
    <clipPath
       id="clipPath3080"
       clipPathUnits="userSpaceOnUse">
      <path
         id="path3082"
         d="m 25,339 850,0 0,-321 -850,0 0,321 z" />
    </clipPath>
    <clipPath
       id="clipPath3070"
       clipPathUnits="userSpaceOnUse">
      <path
         id="path3072"
         d="m 24,419 851,0 0,-401 -851,0 0,401 z" />
    </clipPath>
    <clipPath
       id="clipPath3060"
       clipPathUnits="userSpaceOnUse">
      <path
         id="path3062"
         d="m 25,488 850,0 0,-470 -850,0 0,470 z" />
    </clipPath>
    <clipPath
       id="clipPath3050"
       clipPathUnits="userSpaceOnUse">
      <path
         id="path3052"
         d="m 25,55 850,0 0,-37 -850,0 0,37 z" />
    </clipPath>
    <clipPath
       id="clipPath3040"
       clipPathUnits="userSpaceOnUse">
      <path
         id="path3042"
         d="m 24,121 851,0 0,-103 -851,0 0,103 z" />
    </clipPath>
    <clipPath
       id="clipPath3030"
       clipPathUnits="userSpaceOnUse">
      <path
         id="path3032"
         d="m 25,361 850,0 0,-343 -850,0 0,343 z" />
    </clipPath>
    <clipPath
       id="clipPath3020"
       clipPathUnits="userSpaceOnUse">
      <path
         id="path3022"
         d="m 109,564 766,0 0,-481 -766,0 0,481 z" />
    </clipPath>
  </defs>
  <sodipodi:namedview
     id="base"
     pagecolor="#ffffff"
     bordercolor="#666666"
     borderopacity="1.0"
     inkscape:pageopacity="0.0"
     inkscape:pageshadow="2"
     inkscape:zoom="1"
     inkscape:cx="375"
     inkscape:cy="800"
     inkscape:document-units="px"
     inkscape:current-layer="layer1"
     showgrid="false"
     inkscape:window-width="1652"
     inkscape:window-height="669"
     inkscape:window-x="5"
     inkscape:window-y="26"
     inkscape:window-maximized="0" />
  <metadata
     id="metadata7">
    <rdf:RDF>
      <cc:Work
         rdf:about="">
        <dc:format>image/svg+xml</dc:format>
        <dc:type
           rdf:resource="http://purl.org/dc/dcmitype/StillImage" />
        <dc:title></dc:title>
      </cc:Work>
    </rdf:RDF>
  </metadata>
  <g
     inkscape:label="Layer 1"
     inkscape:groupmode="layer"
     id="layer1">
    <g
       transform="matrix(0.70182325,0,0,-0.70182325,63.869791,467.03945)"
       inkscape:label="Partial_Order_Yields"
       id="g3012">
      <g
         id="g3014" />
      <g
         id="g3016">
        <g
           clip-path="url(#clipPath3020)"
           id="g3018">
          <path
             id="path3024"
             style="fill:none;stroke:#5e81b5;stroke-width:1.60000002;stroke-linecap:square;stroke-linejoin:miter;stroke-miterlimit:3.25;stroke-opacity:1;stroke-dasharray:none"
             d="m 110.82,564 1.141,-5.996 0.262,-1.313 0.261,-1.308 0.524,-2.594 1.043,-5.113 2.09,-9.938 4.179,-18.8 0.262,-1.133 0.262,-1.125 0.523,-2.235 1.043,-4.406 2.09,-8.59 4.18,-16.308 0.285,-1.063 0.281,-1.062 0.566,-2.106 1.133,-4.152 2.266,-8.09 4.531,-15.352 0.281,-0.925 0.286,-0.918 0.566,-1.832 1.129,-3.614 2.266,-7.05 4.531,-13.422 0.277,-0.797 0.277,-0.793 0.559,-1.574 1.109,-3.118 2.223,-6.089 4.449,-11.645 8.895,-21.34 0.258,-0.586 0.261,-0.586 0.516,-1.164 1.039,-2.304 2.074,-4.52 4.149,-8.711 8.297,-16.187 0.281,-0.524 0.281,-0.519 0.563,-1.036 1.125,-2.05 2.25,-4.028 4.496,-7.761 8.996,-14.442 0.262,-0.402 0.265,-0.402 0.524,-0.797 1.05,-1.582 2.098,-3.114 4.199,-6.031 8.403,-11.348 16.464,-19.816 17.868,-18.492 16.671,-14.985 18.071,-14.226 17.742,-12.289 16.547,-10.211 17.945,-9.926 16.75,-8.344 18.149,-8.183 17.82,-7.285 16.621,-6.211 18.023,-6.18 16.829,-5.312 16.496,-4.821 17.898,-4.851 16.703,-4.203 18.102,-4.247 17.769,-3.878 16.575,-3.391 17.976,-3.445 16.777,-3.028 16.45,-2.797 17.851,-2.867 16.653,-2.523 18.05,-2.59 16.86,-2.293 16.527,-2.137 17.926,-2.203 16.73,-1.953 18.133,-2.016 17.801,-1.886 16.605,-1.68 18.004,-1.742 16.809,-1.555 16.48,-1.461 17.879,-1.519 16.684,-1.364 0.289,-0.023 0.293,-0.024 0.582,-0.043 1.164,-0.093 2.328,-0.184 4.652,-0.367 0.293,-0.023 0.289,-0.024 0.583,-0.047 3.492,-0.269 0.293,-0.024 0.289,-0.023 0.582,-0.043 1.164,-0.09 0.293,-0.023 0.289,-0.02 0.582,-0.047 0.293,-0.023 0.289,-0.02 0.293,-0.023 0.289,-0.024"
             inkscape:connector-curvature="0" />
        </g>
      </g>
      <g
         id="g3026">
        <g
           clip-path="url(#clipPath3030)"
           id="g3028">
          <path
             id="path3034"
             style="fill:none;stroke:#e19c24;stroke-width:1.60000002;stroke-linecap:square;stroke-linejoin:miter;stroke-miterlimit:3.25;stroke-opacity:1;stroke-dasharray:none"
             d="m 26,18.176 0.262,16.336 0.258,15.562 0.519,28.946 0.262,13.46 0.258,12.836 0.523,23.914 0.258,11.137 0.262,10.625 0.519,19.82 0.258,9.239 0.262,8.82 0.519,16.465 0.262,7.68 0.258,7.336 0.519,13.699 0.262,6.394 0.258,6.106 0.523,11.406 0.258,5.324 0.262,5.086 0.519,9.492 0.258,4.43 0.262,4.231 0.519,7.89 0.262,3.68 0.258,3.508 0.519,6.547 0.262,3.046 0.262,2.903 0.519,5.406 0.258,2.512 0.262,2.39 0.519,4.442 0.262,2.054 0.258,1.957 0.519,3.618 0.262,1.672 0.258,1.582 0.523,2.918 0.258,1.343 0.262,1.266 0.519,2.32 0.258,1.059 0.262,0.992 0.258,0.934 0.262,0.871 0.261,0.816 0.258,0.762 0.52,1.367 0.281,0.656 0.285,0.602 0.281,0.547 0.282,0.5 0.281,0.445 0.281,0.402 0.281,0.356 0.285,0.312 0.282,0.27 0.281,0.23 0.281,0.192 0.281,0.152 0.282,0.121 0.285,0.082 0.281,0.055 0.281,0.019 0.282,-0.011 0.281,-0.039 0.281,-0.067 0.285,-0.094 0.281,-0.121 0.282,-0.144 0.281,-0.172 0.281,-0.191 0.282,-0.215 0.285,-0.235 0.281,-0.254 0.281,-0.277 0.281,-0.293 0.282,-0.312 0.566,-0.676 0.281,-0.36 0.282,-0.378 0.562,-0.797 1.129,-1.754 0.281,-0.469 0.281,-0.48 0.567,-0.989 1.125,-2.09 0.285,-0.546 0.281,-0.551 0.563,-1.125 1.129,-2.328 2.254,-4.907 0.261,-0.589 0.266,-0.594 0.527,-1.196 1.051,-2.417 2.106,-4.926 4.21,-10.012 8.426,-19.738 0.258,-0.59 0.773,-1.758 1.032,-2.32 2.066,-4.582 4.129,-8.871 8.258,-16.551 0.277,-0.531 0.281,-0.532 0.559,-1.058 1.121,-2.09 2.238,-4.094 4.481,-7.855 8.957,-14.438 0.262,-0.398 0.785,-1.184 1.043,-1.558 2.09,-3.059 4.179,-5.887 8.36,-10.906 0.285,-0.348 0.281,-0.351 0.566,-0.696 1.133,-1.374 2.266,-2.696 4.531,-5.187 9.059,-9.594 0.277,-0.281 0.277,-0.278 0.559,-0.554 1.109,-1.098 2.223,-2.156 4.449,-4.164 8.895,-7.754 0.258,-0.215 0.261,-0.215 0.516,-0.43 1.039,-0.847 2.074,-1.676 4.149,-3.242 8.297,-6.098 17.992,-11.703 16.801,-9.355 16.464,-7.993 17.868,-7.59 16.671,-6.238 18.071,-6 17.742,-5.242 16.547,-4.398 17.945,-4.313 16.75,-3.652 18.149,-3.61 17.82,-3.23 16.621,-2.77 18.023,-2.773 16.829,-2.391 16.496,-2.179 17.898,-2.204 16.703,-1.917 18.102,-1.942 17.769,-1.777 16.575,-1.563 17.976,-1.59 16.777,-1.398 16.45,-1.297 17.851,-1.332 16.653,-1.176 18.05,-1.211 16.86,-1.07 16.527,-1 17.926,-1.035 16.73,-0.918 18.133,-0.949 17.801,-0.887 16.605,-0.793 18.004,-0.824 16.809,-0.735 16.48,-0.691 17.879,-0.723 16.684,-0.644 0.289,-0.012 0.293,-0.012 0.582,-0.023 3.492,-0.129 4.652,-0.176 0.293,-0.011 0.289,-0.012 0.583,-0.02 3.492,-0.129 0.293,-0.011 0.289,-0.012 0.582,-0.02 1.164,-0.043 0.293,-0.011 0.289,-0.008 0.582,-0.023 0.293,-0.012 0.289,-0.008 0.293,-0.012 0.289,-0.011"
             inkscape:connector-curvature="0" />
        </g>
      </g>
      <g
         id="g3036">
        <g
           clip-path="url(#clipPath3040)"
           id="g3038">
          <path
             id="path3044"
             style="fill:none;stroke:#8fb032;stroke-width:1.60000002;stroke-linecap:square;stroke-linejoin:miter;stroke-miterlimit:3.25;stroke-opacity:1;stroke-dasharray:none"
             d="m 26,18.176 0.262,0.097 0.258,0.286 0.261,0.445 0.258,0.594 0.262,0.726 0.258,0.84 0.261,0.941 0.262,1.032 0.258,1.113 0.262,1.184 0.519,2.535 1.039,5.562 0.262,1.457 0.258,1.473 0.519,2.98 1.043,6.004 2.078,11.664 0.262,1.399 0.258,1.379 0.519,2.703 1.043,5.18 0.258,1.246 0.262,1.226 0.519,2.387 1.039,4.531 0.262,1.078 0.258,1.063 0.523,2.062 1.039,3.883 0.258,0.922 0.262,0.902 0.52,1.754 1.039,3.285 0.281,0.84 0.285,0.824 0.563,1.586 1.128,2.946 0.282,0.691 0.281,0.676 0.562,1.297 1.129,2.402 0.282,0.563 0.281,0.546 0.566,1.051 1.125,1.938 0.282,0.453 0.285,0.437 0.562,0.84 1.129,1.543 0.281,0.356 0.282,0.347 0.562,0.664 0.281,0.317 0.285,0.304 0.563,0.586 0.281,0.278 0.281,0.269 0.567,0.516 1.125,0.926 0.285,0.211 0.281,0.207 0.563,0.386 0.281,0.184 0.281,0.176 0.567,0.328 0.281,0.156 0.281,0.152 0.563,0.282 0.285,0.129 0.281,0.129 0.563,0.234 0.261,0.101 0.266,0.098 0.527,0.18 0.262,0.086 0.262,0.078 0.527,0.148 0.262,0.067 0.265,0.062 0.262,0.059 0.266,0.058 0.261,0.051 0.262,0.047 0.528,0.09 0.265,0.035 0.262,0.035 0.262,0.031 0.265,0.028 0.262,0.027 0.262,0.02 0.265,0.019 0.262,0.016 0.266,0.015 0.523,0.016 0.266,0.004 0.261,0.004 0.266,0 0.523,-0.008 0.266,-0.012 0.262,-0.007 0.262,-0.012 0.265,-0.016 0.262,-0.019 0.266,-0.02 0.261,-0.019 0.262,-0.028 0.266,-0.023 0.261,-0.028 0.528,-0.062 0.261,-0.035 0.266,-0.035 0.523,-0.078 0.266,-0.04 0.262,-0.042 0.527,-0.094 1.055,-0.199 0.523,-0.11 0.528,-0.113 1.054,-0.246 0.258,-0.063 0.773,-0.199 1.032,-0.277 2.066,-0.606 4.129,-1.359 0.516,-0.18 0.515,-0.183 1.032,-0.375 2.066,-0.77 4.129,-1.605 0.277,-0.114 0.281,-0.113 0.559,-0.223 1.121,-0.453 2.238,-0.91 4.481,-1.848 8.957,-3.707 16.719,-6.64 18.121,-6.5 17.789,-5.621 16.594,-4.617 17.992,-4.411 16.801,-3.632 16.464,-3.176 17.868,-3.078 16.671,-2.571 18.071,-2.511 17.742,-2.219 16.547,-1.883 17.945,-1.863 16.75,-1.59 18.149,-1.582 17.82,-1.43 16.621,-1.23 18.023,-1.239 16.829,-1.074 16.496,-0.984 17.898,-0.996 16.703,-0.871 18.102,-0.887 17.769,-0.816 16.575,-0.715 17.976,-0.735 16.777,-0.644 16.45,-0.602 17.851,-0.617 16.653,-0.547 18.05,-0.562 16.86,-0.504 16.527,-0.465 17.926,-0.484 16.73,-0.434 18.133,-0.445 17.801,-0.418 16.605,-0.375 18.004,-0.387 16.809,-0.348 16.48,-0.328 17.879,-0.344 16.684,-0.304 0.289,-0.004 0.293,-0.008 0.582,-0.008 1.164,-0.023 2.328,-0.039 4.652,-0.086 0.293,-0.004 0.289,-0.004 0.583,-0.012 1.164,-0.019 2.328,-0.043 0.293,-0.004 0.289,-0.004 0.582,-0.012 1.164,-0.019 0.293,-0.004 0.289,-0.008 0.582,-0.008 0.293,-0.004 0.289,-0.008 0.293,-0.003 0.289,-0.004"
             inkscape:connector-curvature="0" />
        </g>
      </g>
      <g
         id="g3046">
        <g
           clip-path="url(#clipPath3050)"
           id="g3048">
          <path
             id="path3054"
             style="fill:none;stroke:#eb6235;stroke-width:1.60000002;stroke-linecap:square;stroke-linejoin:miter;stroke-miterlimit:3.25;stroke-opacity:1;stroke-dasharray:none"
             d="m 26,18.176 0.262,0 0.258,0.004 0.261,0.011 0.258,0.016 0.262,0.031 0.258,0.039 0.261,0.055 0.262,0.066 0.258,0.079 0.262,0.093 0.257,0.11 0.262,0.125 0.258,0.136 0.262,0.153 0.519,0.34 0.262,0.191 0.258,0.203 0.519,0.442 0.262,0.238 0.258,0.246 0.523,0.523 0.258,0.274 0.262,0.281 0.519,0.586 1.039,1.246 0.262,0.324 0.258,0.324 0.519,0.665 1.043,1.363 2.078,2.765 4.161,5.329 0.281,0.339 0.285,0.336 0.563,0.664 1.128,1.286 2.254,2.394 0.282,0.281 0.281,0.278 0.566,0.547 1.125,1.046 2.258,1.918 0.281,0.223 0.282,0.219 0.562,0.43 1.129,0.82 0.281,0.199 0.281,0.191 0.567,0.379 1.125,0.715 0.285,0.172 0.281,0.172 0.563,0.328 1.129,0.625 2.254,1.121 0.261,0.121 0.266,0.117 0.527,0.231 1.051,0.437 0.262,0.106 0.265,0.101 0.528,0.2 1.051,0.375 0.265,0.09 0.262,0.089 0.527,0.172 1.051,0.324 2.105,0.571 0.266,0.066 0.262,0.063 0.527,0.125 1.051,0.23 0.266,0.055 0.261,0.055 0.528,0.101 1.05,0.195 0.266,0.043 0.262,0.047 0.527,0.086 1.055,0.156 0.262,0.039 0.261,0.036 0.528,0.066 1.054,0.129 0.258,0.027 0.258,0.032 0.515,0.05 0.258,0.028 1.289,0.117 0.516,0.039 1.035,0.074 0.258,0.02 0.258,0.015 0.515,0.028 0.258,0.015 0.258,0.012 0.516,0.027 0.515,0.024 0.258,0.008 0.258,0.011 0.516,0.016 0.519,0.016 0.516,0.015 0.257,0.004 0.258,0.008 1.289,0.019 0.258,0 0.258,0.004 0.516,0 0.257,0.004 0.52,0 0.258,-0.004 0.515,0 0.516,-0.007 0.258,0 1.289,-0.02 0.258,-0.008 0.258,-0.004 0.257,-0.008 0.52,-0.011 0.277,-0.008 0.281,-0.008 0.559,-0.016 0.281,-0.011 0.282,-0.008 0.558,-0.02 0.281,-0.011 0.278,-0.012 0.562,-0.023 1.117,-0.051 0.282,-0.012 0.281,-0.016 0.559,-0.027 1.121,-0.059 2.238,-0.132 0.277,-0.02 0.281,-0.015 0.559,-0.04 1.121,-0.074 2.238,-0.164 4.481,-0.359 0.262,-0.02 0.261,-0.023 0.524,-0.043 1.043,-0.094 2.09,-0.187 4.179,-0.391 8.36,-0.832 18.121,-1.891 17.789,-1.824 16.594,-1.605 17.992,-1.614 16.801,-1.379 16.464,-1.238 17.868,-1.226 16.671,-1.047 18.071,-1.039 17.742,-0.934 16.547,-0.797 17.945,-0.801 16.75,-0.687 18.149,-0.691 17.82,-0.629 16.621,-0.547 18.023,-0.551 16.829,-0.48 16.496,-0.442 17.898,-0.453 16.703,-0.395 18.102,-0.402 17.769,-0.371 16.575,-0.328 17.976,-0.34 16.777,-0.297 16.45,-0.277 17.851,-0.285 16.653,-0.254 18.05,-0.262 16.86,-0.234 16.527,-0.219 17.926,-0.227 16.73,-0.203 18.133,-0.207 17.801,-0.199 16.605,-0.176 18.004,-0.183 16.809,-0.164 16.48,-0.157 17.879,-0.16 16.684,-0.144 0.289,-0.004 0.293,0 0.582,-0.008 1.164,-0.008 2.328,-0.019 4.652,-0.04 0.293,-0.003 0.289,-0.004 1.747,-0.012 2.328,-0.02 0.293,-0.003 0.289,-0.004 1.746,-0.012 0.293,-0.004 0.289,-0.004 0.582,-0.004 0.293,0 0.289,-0.004 0.293,-0.004 0.289,0"
             inkscape:connector-curvature="0" />
        </g>
      </g>
      <g
         id="g3056">
        <g
           clip-path="url(#clipPath3060)"
           id="g3058">
          <path
             id="path3064"
             style="fill:none;stroke:#8778b3;stroke-width:1.60000002;stroke-linecap:square;stroke-linejoin:miter;stroke-miterlimit:3.25;stroke-opacity:1;stroke-dasharray:none"
             d="m 26,18.176 0.262,16.437 0.258,15.844 0.519,30.02 0.262,14.214 0.258,13.719 0.523,26.016 0.258,12.332 0.262,11.91 0.519,22.609 1.039,40.785 0.262,9.352 0.258,9.043 0.519,17.184 0.262,8.168 0.258,7.898 0.523,15.02 0.258,7.144 0.262,6.906 0.519,13.145 1.039,23.812 0.262,5.477 0.258,5.297 0.519,10.086 0.262,4.797 0.262,4.64 0.519,8.836 0.258,4.199 0.262,4.067 0.519,7.734 1.039,14.008 0.262,3.215 0.258,3.109 0.523,5.914 0.258,2.809 0.262,2.715 0.519,5.156 0.258,2.445 0.262,2.364 0.52,4.484 1.039,8.062 0.281,1.993 0.285,1.914 0.563,3.605 0.281,1.695 0.281,1.625 0.566,3.051 0.282,1.43 0.281,1.371 0.562,2.566 0.282,1.2 0.285,1.14 0.562,2.133 0.282,0.992 0.281,0.946 0.566,1.746 0.281,0.808 0.282,0.766 0.562,1.406 0.282,0.645 0.285,0.609 0.281,0.566 0.281,0.536 0.281,0.5 0.282,0.464 0.566,0.833 0.281,0.371 0.282,0.336 0.281,0.312 0.281,0.281 0.281,0.254 0.285,0.227 0.282,0.199 0.281,0.176 0.281,0.152 0.281,0.125 0.286,0.106 0.281,0.078 0.281,0.058 0.281,0.039 0.282,0.016 0.281,-0.004 0.285,-0.023 0.281,-0.043 0.282,-0.063 0.281,-0.078 0.281,-0.098 0.281,-0.113 0.285,-0.133 0.282,-0.148 0.281,-0.16 0.281,-0.18 0.281,-0.191 0.282,-0.207 0.285,-0.223 0.281,-0.234 0.563,-0.512 0.261,-0.254 0.266,-0.266 0.527,-0.562 1.051,-1.242 0.262,-0.332 0.265,-0.344 0.528,-0.707 1.051,-1.508 0.265,-0.395 0.262,-0.402 0.527,-0.828 1.051,-1.723 2.105,-3.711 0.266,-0.488 0.262,-0.488 0.527,-0.992 1.051,-2.032 2.105,-4.226 4.215,-8.938 0.516,-1.125 0.515,-1.133 1.032,-2.277 2.066,-4.601 4.129,-9.305 8.258,-18.567 17.914,-37.851 16.719,-31.023 18.121,-28.958 17.789,-24.328 16.594,-19.629 17.992,-18.519 16.801,-15.121 16.464,-13.133 17.868,-12.656 16.671,-10.539 18.071,-10.246 17.742,-9.043 16.547,-7.653 17.945,-7.558 16.75,-6.446 18.149,-6.406 17.82,-5.769 16.621,-4.977 18.023,-4.996 16.829,-4.332 16.496,-3.965 17.898,-4.016 16.703,-3.507 18.102,-3.563 17.769,-3.277 16.575,-2.883 17.976,-2.945 16.777,-2.594 16.45,-2.414 17.851,-2.481 16.653,-2.195 18.05,-2.262 16.86,-2.007 16.527,-1.879 17.926,-1.942 16.73,-1.73 18.133,-1.789 17.801,-1.676 16.605,-1.5 18.004,-1.559 16.809,-1.394 16.48,-1.313 17.879,-1.371 16.684,-1.23 0.289,-0.02 0.293,-0.019 1.746,-0.129 2.328,-0.164 4.652,-0.332 0.293,-0.02 0.289,-0.023 0.583,-0.039 3.492,-0.246 0.293,-0.02 0.289,-0.023 0.582,-0.04 1.164,-0.082 0.293,-0.019 0.289,-0.02 0.582,-0.043 0.293,-0.019 0.289,-0.02 0.293,-0.019 0.289,-0.02"
             inkscape:connector-curvature="0" />
        </g>
      </g>
      <g
         id="g3066">
        <g
           clip-path="url(#clipPath3070)"
           id="g3068">
          <path
             id="path3074"
             style="fill:none;stroke:#c56e1a;stroke-width:1.60000002;stroke-linecap:square;stroke-linejoin:miter;stroke-miterlimit:3.25;stroke-opacity:1;stroke-dasharray:none"
             d="m 26,18.176 0.262,0.199 0.258,0.578 0.261,0.926 0.258,1.246 0.262,1.539 0.258,1.809 0.261,2.054 0.262,2.282 0.258,2.488 0.262,2.676 0.519,5.851 0.258,3.145 0.262,3.273 0.519,6.883 0.262,3.586 0.258,3.668 0.519,7.555 1.043,15.73 2.078,32.598 0.262,4.09 0.258,4.082 0.519,8.128 1.043,16.043 2.078,30.836 0.262,3.715 0.258,3.68 0.523,7.25 1.039,14.059 2.079,26.3 0.281,3.375 0.285,3.328 0.563,6.52 1.128,12.508 0.282,3.015 0.281,2.969 0.562,5.817 1.129,11.113 0.282,2.676 0.281,2.632 0.566,5.145 1.125,9.816 2.258,17.829 0.281,2.066 0.282,2.035 0.562,3.965 1.129,7.539 0.281,1.805 0.281,1.773 0.567,3.457 1.125,6.563 0.285,1.566 0.281,1.543 0.563,3 1.129,5.684 2.254,10.183 0.261,1.09 0.266,1.074 0.527,2.086 1.051,3.953 0.262,0.946 0.265,0.925 0.528,1.801 1.051,3.406 0.265,0.813 0.262,0.793 0.527,1.547 1.051,2.914 2.105,5.16 0.266,0.59 0.262,0.57 0.527,1.113 1.051,2.079 0.266,0.492 0.261,0.476 0.528,0.93 1.05,1.723 0.266,0.406 0.262,0.394 0.527,0.762 1.055,1.41 0.262,0.328 0.261,0.321 0.528,0.613 1.054,1.125 0.258,0.254 0.258,0.25 0.515,0.473 0.258,0.222 0.258,0.219 0.516,0.414 0.258,0.195 0.257,0.192 0.516,0.355 1.035,0.637 0.258,0.144 0.258,0.137 0.515,0.258 0.258,0.117 0.258,0.114 0.516,0.207 0.257,0.097 0.258,0.09 0.258,0.086 0.258,0.078 0.258,0.074 0.258,0.067 0.261,0.066 0.516,0.109 0.258,0.047 0.257,0.043 0.258,0.039 0.516,0.063 0.258,0.023 0.258,0.02 0.257,0.015 0.516,0.016 0.258,0 0.258,-0.004 0.257,-0.008 0.262,-0.011 0.258,-0.016 0.258,-0.019 0.258,-0.024 0.257,-0.027 0.258,-0.031 0.258,-0.036 0.258,-0.039 0.258,-0.043 0.257,-0.047 0.258,-0.05 0.258,-0.055 0.516,-0.121 0.258,-0.063 0.257,-0.07 0.52,-0.144 0.277,-0.086 0.281,-0.09 0.559,-0.188 1.121,-0.422 0.281,-0.113 0.278,-0.117 0.562,-0.246 1.117,-0.528 0.563,-0.281 0.559,-0.297 1.121,-0.621 2.238,-1.371 0.277,-0.183 0.281,-0.184 0.559,-0.379 1.121,-0.781 2.238,-1.656 4.481,-3.661 0.523,-0.453 0.524,-0.457 1.043,-0.929 2.09,-1.907 4.179,-3.992 8.36,-8.488 18.121,-19.422 17.789,-18.977 16.594,-16.867 17.992,-17.078 16.801,-14.734 16.464,-13.332 17.868,-13.305 16.671,-11.406 18.071,-11.371 17.742,-10.258 16.547,-8.836 17.945,-8.867 16.75,-7.676 18.149,-7.719 17.82,-7.035 16.621,-6.129 18.023,-6.211 16.829,-5.429 16.496,-5.008 17.898,-5.11 16.703,-4.488 18.102,-4.59 17.769,-4.246 16.575,-3.746 17.976,-3.852 16.777,-3.41 16.45,-3.183 17.851,-3.285 16.653,-2.918 18.05,-3.016 16.86,-2.688 16.527,-2.519 17.926,-2.617 16.73,-2.332 18.133,-2.426 17.801,-2.277 16.605,-2.039 18.004,-2.122 16.809,-1.906 16.48,-1.801 17.879,-1.879 16.684,-1.687 0.289,-0.031 0.293,-0.028 1.746,-0.175 2.328,-0.227 4.652,-0.457 0.293,-0.031 0.289,-0.028 0.583,-0.054 3.492,-0.34 0.293,-0.027 0.289,-0.028 0.582,-0.058 1.164,-0.11 0.293,-0.031 0.289,-0.027 0.582,-0.055 0.293,-0.027 0.289,-0.028 0.293,-0.027 0.289,-0.027"
             inkscape:connector-curvature="0" />
        </g>
      </g>
      <g
         id="g3076">
        <g
           clip-path="url(#clipPath3080)"
           id="g3078">
          <path
             id="path3084"
             style="fill:none;stroke:#5d9ec7;stroke-width:1.60000002;stroke-linecap:square;stroke-linejoin:miter;stroke-miterlimit:3.25;stroke-opacity:1;stroke-dasharray:none"
             d="m 26,18.176 0.262,0 0.258,0.012 0.261,0.035 0.258,0.058 0.262,0.09 0.258,0.133 0.261,0.176 0.262,0.226 0.258,0.274 0.262,0.328 0.257,0.383 0.262,0.441 0.258,0.496 0.262,0.555 0.261,0.617 0.258,0.672 0.262,0.73 0.258,0.789 0.519,1.747 0.262,0.953 0.258,1.011 0.523,2.176 0.258,1.164 0.262,1.211 0.519,2.563 1.039,5.64 0.262,1.508 0.258,1.547 0.519,3.187 1.043,6.747 2.078,14.628 4.161,31.711 0.281,2.196 0.285,2.191 0.563,4.387 1.128,8.738 2.254,17.223 4.512,32.625 0.281,1.937 0.282,1.926 0.562,3.809 1.129,7.449 2.254,14.234 4.512,25.727 0.261,1.386 0.266,1.379 0.527,2.715 1.051,5.293 2.106,10.012 0.265,1.199 0.262,1.188 0.527,2.343 1.051,4.551 2.105,8.582 0.266,1.028 0.262,1.015 0.527,1.996 1.051,3.883 2.105,7.289 4.215,12.848 0.258,0.715 0.258,0.707 0.515,1.394 1.032,2.699 2.066,5.047 0.258,0.598 0.258,0.594 0.515,1.164 1.032,2.25 2.066,4.191 0.258,0.496 0.258,0.492 0.515,0.961 1.032,1.86 2.066,3.449 0.258,0.406 0.258,0.403 0.515,0.789 1.031,1.515 2.067,2.797 0.277,0.36 0.281,0.351 0.559,0.688 1.121,1.312 0.281,0.313 0.278,0.312 0.562,0.606 1.117,1.156 0.282,0.277 0.281,0.274 0.559,0.535 1.121,1.011 2.238,1.821 0.277,0.211 0.281,0.203 0.559,0.402 1.121,0.754 0.281,0.176 0.278,0.176 0.562,0.343 1.117,0.637 0.282,0.152 0.281,0.149 0.559,0.285 1.121,0.535 0.277,0.125 0.281,0.121 0.559,0.235 1.121,0.437 0.523,0.188 0.524,0.175 0.258,0.086 0.261,0.082 0.785,0.235 0.786,0.211 1.043,0.254 0.523,0.109 0.524,0.105 0.257,0.051 0.262,0.047 0.523,0.086 0.786,0.117 0.261,0.035 0.258,0.032 0.262,0.031 0.785,0.082 0.262,0.023 0.785,0.059 0.258,0.016 0.261,0.011 0.262,0.016 0.262,0.008 0.262,0.012 0.261,0.003 0.262,0.008 0.262,0.004 0.258,0 0.261,0.004 0.262,-0.004 0.262,0 0.261,-0.004 0.786,-0.023 0.257,-0.012 0.262,-0.012 0.262,-0.015 0.262,-0.012 0.261,-0.02 0.262,-0.015 0.262,-0.02 0.523,-0.047 0.52,-0.046 0.285,-0.032 0.281,-0.031 0.566,-0.062 0.286,-0.04 0.281,-0.035 0.566,-0.078 0.285,-0.043 0.282,-0.043 0.566,-0.09 1.133,-0.199 0.281,-0.054 0.285,-0.055 0.567,-0.113 1.133,-0.243 2.265,-0.547 0.281,-0.074 0.286,-0.074 0.566,-0.152 1.129,-0.321 2.266,-0.695 0.285,-0.09 0.281,-0.094 0.566,-0.187 1.133,-0.387 2.266,-0.816 0.277,-0.102 0.277,-0.105 0.559,-0.211 1.109,-0.434 2.223,-0.902 4.449,-1.934 8.895,-4.289 0.258,-0.133 0.261,-0.132 0.516,-0.266 1.039,-0.535 2.074,-1.086 4.149,-2.223 8.297,-4.621 17.992,-10.472 16.801,-9.934 16.464,-9.602 17.868,-10.089 16.671,-9.024 18.071,-9.305 17.742,-8.644 16.547,-7.625 17.945,-7.809 16.75,-6.879 18.149,-7.027 17.82,-6.504 16.621,-5.726 18.023,-5.875 16.829,-5.184 16.496,-4.824 17.898,-4.965 16.703,-4.391 18.102,-4.523 17.769,-4.215 16.575,-3.738 17.976,-3.867 16.777,-3.438 16.45,-3.227 17.851,-3.343 16.653,-2.985 18.05,-3.097 16.86,-2.766 16.527,-2.605 17.926,-2.711 16.73,-2.43 18.133,-2.527 17.801,-2.383 16.605,-2.141 18.004,-2.234 16.809,-2.008 16.48,-1.902 17.879,-1.992 16.684,-1.793 0.289,-0.032 0.293,-0.031 0.582,-0.062 3.492,-0.364 4.652,-0.488 0.293,-0.027 0.289,-0.032 0.583,-0.062 1.164,-0.117 2.328,-0.242 0.293,-0.028 0.289,-0.031 0.582,-0.059 1.164,-0.121 0.293,-0.031 0.289,-0.027 0.582,-0.059 0.293,-0.031 0.289,-0.031 0.293,-0.028 0.289,-0.031"
             inkscape:connector-curvature="0" />
        </g>
      </g>
      <g
         id="g3086">
        <g
           clip-path="url(#clipPath3090)"
           id="g3088">
          <path
             id="path3094"
             style="fill:none;stroke:#ffbf00;stroke-width:1.60000002;stroke-linecap:square;stroke-linejoin:miter;stroke-miterlimit:3.25;stroke-opacity:1;stroke-dasharray:none"
             d="m 26,18.176 0.781,0 0.258,0.004 0.262,0.004 0.258,0.007 0.261,0.012 0.262,0.016 0.258,0.023 0.262,0.031 0.257,0.043 0.262,0.051 0.258,0.059 0.262,0.074 0.261,0.09 0.258,0.101 0.262,0.114 0.258,0.133 0.261,0.148 0.258,0.168 0.262,0.184 0.258,0.199 0.261,0.222 0.262,0.243 0.258,0.257 0.262,0.282 0.258,0.304 0.261,0.321 0.258,0.343 0.262,0.364 0.519,0.793 0.262,0.425 0.258,0.45 0.519,0.961 0.262,0.511 0.262,0.532 0.519,1.125 0.258,0.593 0.262,0.614 0.519,1.285 1.039,2.793 0.262,0.746 0.258,0.761 0.523,1.571 1.039,3.336 2.079,7.351 0.281,1.059 0.285,1.07 0.563,2.18 1.128,4.492 2.254,9.43 4.512,19.933 1.125,5.078 1.129,5.086 2.254,10.122 4.512,19.742 0.261,1.121 0.266,1.117 0.527,2.227 1.051,4.398 2.106,8.59 4.21,16.254 0.266,0.972 0.262,0.969 0.527,1.922 1.051,3.773 2.105,7.301 4.215,13.582 0.258,0.789 0.258,0.785 0.515,1.551 1.032,3.047 2.066,5.856 4.129,10.804 0.516,1.266 0.515,1.25 1.032,2.449 2.066,4.684 4.129,8.578 0.277,0.547 0.281,0.539 0.559,1.066 1.121,2.082 2.238,3.957 0.282,0.477 0.281,0.469 0.559,0.933 1.121,1.813 2.238,3.437 0.277,0.414 0.281,0.41 0.559,0.809 1.121,1.57 2.238,2.973 4.481,5.309 0.523,0.57 0.524,0.555 1.043,1.082 2.09,2.05 0.261,0.243 0.262,0.246 0.524,0.476 1.042,0.93 2.09,1.75 0.524,0.414 0.523,0.41 1.043,0.789 2.09,1.485 0.262,0.175 0.785,0.516 1.043,0.668 2.09,1.242 0.285,0.156 0.281,0.161 0.566,0.308 1.133,0.594 2.266,1.098 0.281,0.128 0.285,0.125 0.567,0.25 1.133,0.477 2.265,0.871 0.281,0.102 0.286,0.097 0.566,0.196 1.129,0.371 0.285,0.09 0.281,0.085 0.567,0.172 1.133,0.321 0.285,0.078 0.281,0.074 0.566,0.148 1.133,0.278 0.285,0.066 0.282,0.063 0.566,0.125 1.133,0.234 0.554,0.109 0.559,0.102 1.109,0.191 0.555,0.086 0.559,0.086 1.109,0.153 0.281,0.035 0.278,0.035 0.554,0.066 0.555,0.063 0.559,0.055 0.554,0.054 0.832,0.071 0.282,0.023 1.109,0.078 0.277,0.016 0.282,0.019 0.277,0.012 0.277,0.016 0.555,0.027 0.277,0.012 0.282,0.008 0.277,0.011 0.832,0.024 0.277,0.004 0.278,0.007 0.281,0.004 0.277,0.004 0.278,0 0.277,0.004 0.836,0 0.555,-0.008 0.277,0 0.277,-0.004 0.278,-0.007 0.281,-0.004 0.832,-0.024 0.258,-0.008 0.261,-0.007 0.258,-0.012 0.258,-0.008 0.262,-0.012 0.258,-0.011 0.519,-0.024 0.258,-0.015 0.262,-0.016 0.515,-0.027 1.039,-0.071 0.258,-0.015 0.262,-0.02 0.515,-0.043 1.039,-0.086 0.258,-0.023 0.262,-0.024 0.516,-0.05 1.039,-0.102 0.258,-0.031 0.261,-0.028 0.516,-0.058 1.039,-0.121 2.074,-0.27 0.258,-0.035 0.262,-0.035 0.515,-0.074 1.039,-0.157 2.075,-0.328 0.562,-0.093 0.563,-0.098 1.125,-0.199 2.25,-0.418 4.496,-0.926 0.281,-0.059 0.844,-0.187 1.125,-0.254 2.25,-0.524 4.496,-1.117 0.262,-0.066 0.265,-0.07 0.524,-0.137 1.05,-0.274 2.098,-0.566 4.199,-1.172 8.403,-2.504 16.464,-5.344 17.868,-6.191 16.671,-5.945 18.071,-6.469 17.742,-6.273 16.547,-5.723 17.945,-6.027 16.75,-5.438 18.149,-5.672 17.82,-5.344 16.621,-4.781 18.023,-4.972 16.829,-4.442 16.496,-4.176 17.898,-4.339 16.703,-3.876 18.102,-4.023 17.769,-3.777 16.575,-3.379 17.976,-3.512 16.777,-3.144 16.45,-2.965 17.851,-3.086 16.653,-2.77 18.05,-2.886 16.86,-2.594 16.527,-2.446 17.926,-2.558 16.73,-2.301 18.133,-2.402 17.801,-2.27 16.605,-2.047 18.004,-2.14 16.809,-1.934 16.48,-1.832 17.879,-1.922 16.684,-1.738 0.289,-0.027 0.293,-0.032 0.582,-0.058 1.164,-0.121 2.328,-0.235 4.652,-0.472 0.293,-0.028 0.289,-0.031 1.747,-0.176 2.328,-0.23 0.293,-0.031 0.289,-0.028 1.746,-0.176 0.293,-0.027 0.289,-0.031 0.582,-0.055 0.293,-0.031 0.289,-0.027 0.293,-0.028 0.289,-0.031"
             inkscape:connector-curvature="0" />
        </g>
      </g>
      <g
         id="g3096">
        <g
           clip-path="url(#clipPath3100)"
           id="g3098">
          <path
             id="path3104"
             style="fill:none;stroke:#a5609d;stroke-width:1.60000002;stroke-linecap:square;stroke-linejoin:miter;stroke-miterlimit:3.25;stroke-opacity:1;stroke-dasharray:none"
             d="m 26,18.176 1.301,0 0.258,0.004 0.261,0 0.262,0.004 0.258,0.007 0.262,0.008 0.257,0.008 0.262,0.012 0.258,0.011 0.262,0.016 0.261,0.02 0.258,0.023 0.262,0.023 0.258,0.028 0.261,0.031 0.258,0.031 0.262,0.039 0.258,0.039 0.523,0.094 0.258,0.051 0.262,0.055 0.519,0.117 0.258,0.066 0.262,0.067 0.519,0.144 0.262,0.078 0.258,0.082 0.519,0.172 1.043,0.379 0.258,0.098 0.262,0.105 0.519,0.215 1.039,0.457 0.262,0.121 0.258,0.121 0.523,0.25 1.039,0.516 2.079,1.09 0.281,0.152 0.285,0.152 0.563,0.313 1.128,0.621 2.254,1.262 4.512,2.476 1.125,0.594 1.129,0.586 2.254,1.121 4.512,2.063 0.261,0.113 0.266,0.113 0.527,0.219 1.051,0.43 2.106,0.816 0.265,0.098 0.262,0.097 0.527,0.192 1.051,0.375 2.105,0.703 0.266,0.086 0.262,0.082 0.527,0.168 1.051,0.32 2.105,0.602 4.215,1.066 0.258,0.063 0.258,0.058 1.547,0.34 2.066,0.422 0.258,0.051 0.258,0.047 0.515,0.097 1.032,0.192 2.066,0.351 0.258,0.039 0.258,0.043 1.547,0.235 2.066,0.293 0.258,0.031 0.258,0.035 0.515,0.066 1.031,0.129 2.067,0.235 0.277,0.031 0.281,0.031 0.559,0.059 1.121,0.109 0.281,0.027 0.278,0.028 0.562,0.051 1.117,0.097 0.563,0.047 0.559,0.047 1.121,0.086 2.238,0.156 0.277,0.016 0.281,0.019 0.559,0.036 1.121,0.062 0.281,0.016 0.278,0.015 0.562,0.032 1.117,0.054 0.282,0.016 0.281,0.012 0.559,0.023 1.121,0.047 0.277,0.012 0.281,0.011 0.559,0.02 1.121,0.039 0.523,0.016 0.524,0.019 1.043,0.027 0.523,0.016 0.524,0.012 1.043,0.023 0.261,0.004 0.262,0.008 0.524,0.008 0.257,0.004 0.262,0.007 1.57,0.024 0.258,0.004 0.262,0 0.785,0.012 0.262,0 0.523,0.007 0.262,0 0.258,0.004 0.523,0.004 0.524,0 0.261,0.004 0.524,0 0.258,0.004 3.398,0 0.262,-0.004 0.781,0 0.262,-0.004 0.285,0 0.281,-0.004 0.285,0 0.281,-0.004 0.286,0 0.281,-0.004 0.566,-0.003 0.285,-0.004 0.282,0 0.566,-0.008 1.133,-0.012 0.281,-0.004 0.285,-0.004 1.7,-0.023 0.281,-0.004 0.285,-0.008 0.566,-0.008 1.133,-0.019 0.281,-0.004 0.286,-0.008 0.566,-0.012 1.129,-0.019 2.266,-0.051 0.285,-0.008 0.281,-0.008 0.566,-0.011 1.133,-0.028 2.266,-0.062 0.554,-0.016 0.559,-0.015 1.109,-0.032 2.223,-0.066 4.449,-0.145 8.895,-0.324 0.258,-0.008 0.261,-0.011 0.516,-0.02 1.039,-0.039 2.074,-0.082 4.149,-0.168 8.297,-0.352 17.992,-0.793 16.801,-0.753 16.464,-0.727 17.868,-0.766 16.671,-0.679 18.071,-0.699 17.742,-0.649 16.547,-0.57 17.945,-0.586 16.75,-0.512 18.149,-0.523 17.82,-0.485 16.621,-0.425 18.023,-0.438 16.829,-0.383 16.496,-0.355 17.898,-0.367 16.703,-0.325 18.102,-0.336 17.769,-0.308 16.575,-0.278 17.976,-0.285 16.777,-0.25 16.45,-0.238 17.851,-0.246 16.653,-0.219 18.05,-0.226 16.86,-0.204 16.527,-0.191 17.926,-0.199 16.73,-0.176 18.133,-0.184 17.801,-0.175 16.605,-0.157 18.004,-0.164 16.809,-0.144 16.48,-0.141 17.879,-0.144 16.684,-0.129 0.289,-0.004 0.293,-0.004 1.746,-0.012 2.328,-0.019 4.652,-0.035 0.293,0 0.289,-0.004 1.747,-0.012 2.328,-0.02 0.293,0 0.289,-0.004 1.746,-0.011 0.293,-0.004 0.289,0 0.582,-0.004 0.293,-0.004 0.289,0 0.293,-0.004 0.289,0"
             inkscape:connector-curvature="0" />
        </g>
      </g>
      <g
         id="g3106">
        <g
           clip-path="url(#clipPath3110)"
           id="g3108">
          <path
             id="path3114"
             style="fill:none;stroke:#929600;stroke-width:1.60000002;stroke-linecap:square;stroke-linejoin:miter;stroke-miterlimit:3.25;stroke-opacity:1;stroke-dasharray:none"
             d="m 26,18.176 1.82,0 0.262,0.004 0.258,0 0.262,0.004 0.257,0.004 0.262,0.003 0.258,0.008 0.523,0.024 0.258,0.015 0.262,0.016 0.258,0.023 0.261,0.028 0.258,0.031 0.262,0.035 0.258,0.043 0.261,0.047 0.262,0.055 0.258,0.062 0.262,0.07 0.258,0.079 0.261,0.085 0.258,0.094 0.262,0.106 0.261,0.117 0.258,0.125 0.262,0.133 0.258,0.148 0.262,0.16 0.257,0.172 0.262,0.184 0.262,0.195 0.519,0.434 0.258,0.238 0.262,0.25 0.519,0.547 0.262,0.297 0.258,0.312 0.519,0.672 0.262,0.359 0.258,0.375 0.523,0.805 0.258,0.426 0.262,0.445 0.519,0.942 0.258,0.496 0.262,0.515 0.52,1.082 1.039,2.387 0.281,0.695 0.285,0.719 0.563,1.504 1.128,3.27 0.282,0.875 0.281,0.89 0.562,1.856 1.129,3.965 0.282,1.043 0.281,1.066 0.566,2.195 1.125,4.641 2.258,10.254 0.281,1.367 0.282,1.391 0.562,2.832 1.129,5.89 2.254,12.617 4.512,28.258 0.261,1.762 0.266,1.773 0.527,3.579 1.051,7.289 2.106,15.062 4.21,31.82 8.426,68.614 16.516,143.32 17.914,154.512 2.477,20.113"
             inkscape:connector-curvature="0" />
          <path
             id="path3116"
             style="fill:none;stroke:#666666;stroke-width:0.2;stroke-linecap:butt;stroke-linejoin:miter;stroke-miterlimit:3.25;stroke-opacity:1;stroke-dasharray:none"
             d="m 26,18.176 0,4"
             inkscape:connector-curvature="0" />
        </g>
      </g>
      <g
         id="g3118">
        <text
           id="text3120"
           transform="matrix(1,0,0,-1,22.75,4.175084)">
          <tspan
             id="tspan3122"
             y="0"
             x="0"
             style="font-size:10px;font-variant:normal;font-weight:normal;writing-mode:lr-tb;fill:#666666;fill-opacity:1;fill-rule:nonzero;stroke:none;font-family:Liberation Sans;-inkscape-font-specification:LiberationSans">0</tspan>
        </text>
        <path
           id="path3124"
           style="fill:none;stroke:#666666;stroke-width:0.2;stroke-linecap:butt;stroke-linejoin:miter;stroke-miterlimit:3.25;stroke-opacity:1;stroke-dasharray:none"
           d="m 68.391,18.176 0,2.398"
           inkscape:connector-curvature="0" />
        <path
           id="path3126"
           style="fill:none;stroke:#666666;stroke-width:0.2;stroke-linecap:butt;stroke-linejoin:miter;stroke-miterlimit:3.25;stroke-opacity:1;stroke-dasharray:none"
           d="m 110.785,18.176 0,2.398"
           inkscape:connector-curvature="0" />
        <path
           id="path3128"
           style="fill:none;stroke:#666666;stroke-width:0.2;stroke-linecap:butt;stroke-linejoin:miter;stroke-miterlimit:3.25;stroke-opacity:1;stroke-dasharray:none"
           d="m 153.176,18.176 0,2.398"
           inkscape:connector-curvature="0" />
        <path
           id="path3130"
           style="fill:none;stroke:#666666;stroke-width:0.2;stroke-linecap:butt;stroke-linejoin:miter;stroke-miterlimit:3.25;stroke-opacity:1;stroke-dasharray:none"
           d="m 195.566,18.176 0,2.398"
           inkscape:connector-curvature="0" />
        <path
           id="path3132"
           style="fill:none;stroke:#666666;stroke-width:0.2;stroke-linecap:butt;stroke-linejoin:miter;stroke-miterlimit:3.25;stroke-opacity:1;stroke-dasharray:none"
           d="m 237.961,18.176 0,4"
           inkscape:connector-curvature="0" />
        <text
           id="text3134"
           transform="matrix(1,0,0,-1,234.70919,4.175084)">
          <tspan
             id="tspan3136"
             y="0"
             x="0"
             style="font-size:10px;font-variant:normal;font-weight:normal;writing-mode:lr-tb;fill:#666666;fill-opacity:1;fill-rule:nonzero;stroke:none;font-family:Liberation Sans;-inkscape-font-specification:LiberationSans">5</tspan>
        </text>
        <path
           id="path3138"
           style="fill:none;stroke:#666666;stroke-width:0.2;stroke-linecap:butt;stroke-linejoin:miter;stroke-miterlimit:3.25;stroke-opacity:1;stroke-dasharray:none"
           d="m 280.352,18.176 0,2.398"
           inkscape:connector-curvature="0" />
        <path
           id="path3140"
           style="fill:none;stroke:#666666;stroke-width:0.2;stroke-linecap:butt;stroke-linejoin:miter;stroke-miterlimit:3.25;stroke-opacity:1;stroke-dasharray:none"
           d="m 322.742,18.176 0,2.398"
           inkscape:connector-curvature="0" />
        <path
           id="path3142"
           style="fill:none;stroke:#666666;stroke-width:0.2;stroke-linecap:butt;stroke-linejoin:miter;stroke-miterlimit:3.25;stroke-opacity:1;stroke-dasharray:none"
           d="m 365.133,18.176 0,2.398"
           inkscape:connector-curvature="0" />
        <path
           id="path3144"
           style="fill:none;stroke:#666666;stroke-width:0.2;stroke-linecap:butt;stroke-linejoin:miter;stroke-miterlimit:3.25;stroke-opacity:1;stroke-dasharray:none"
           d="m 407.527,18.176 0,2.398"
           inkscape:connector-curvature="0" />
        <path
           id="path3146"
           style="fill:none;stroke:#666666;stroke-width:0.2;stroke-linecap:butt;stroke-linejoin:miter;stroke-miterlimit:3.25;stroke-opacity:1;stroke-dasharray:none"
           d="m 449.918,18.176 0,4"
           inkscape:connector-curvature="0" />
        <text
           id="text3148"
           transform="matrix(1,0,0,-1,443.41838,4.175084)">
          <tspan
             id="tspan3150"
             sodipodi:role="line"
             y="0"
             x="0 5.5599999"
             style="font-size:10px;font-variant:normal;font-weight:normal;writing-mode:lr-tb;fill:#666666;fill-opacity:1;fill-rule:nonzero;stroke:none;font-family:Liberation Sans;-inkscape-font-specification:LiberationSans">10</tspan>
        </text>
        <path
           id="path3152"
           style="fill:none;stroke:#666666;stroke-width:0.2;stroke-linecap:butt;stroke-linejoin:miter;stroke-miterlimit:3.25;stroke-opacity:1;stroke-dasharray:none"
           d="m 492.309,18.176 0,2.398"
           inkscape:connector-curvature="0" />
        <path
           id="path3154"
           style="fill:none;stroke:#666666;stroke-width:0.2;stroke-linecap:butt;stroke-linejoin:miter;stroke-miterlimit:3.25;stroke-opacity:1;stroke-dasharray:none"
           d="m 534.703,18.176 0,2.398"
           inkscape:connector-curvature="0" />
        <path
           id="path3156"
           style="fill:none;stroke:#666666;stroke-width:0.2;stroke-linecap:butt;stroke-linejoin:miter;stroke-miterlimit:3.25;stroke-opacity:1;stroke-dasharray:none"
           d="m 577.094,18.176 0,2.398"
           inkscape:connector-curvature="0" />
        <path
           id="path3158"
           style="fill:none;stroke:#666666;stroke-width:0.2;stroke-linecap:butt;stroke-linejoin:miter;stroke-miterlimit:3.25;stroke-opacity:1;stroke-dasharray:none"
           d="m 619.484,18.176 0,2.398"
           inkscape:connector-curvature="0" />
        <path
           id="path3160"
           style="fill:none;stroke:#666666;stroke-width:0.2;stroke-linecap:butt;stroke-linejoin:miter;stroke-miterlimit:3.25;stroke-opacity:1;stroke-dasharray:none"
           d="m 661.879,18.176 0,4"
           inkscape:connector-curvature="0" />
        <text
           id="text3162"
           transform="matrix(1,0,0,-1,655.37756,4.175084)">
          <tspan
             id="tspan3164"
             sodipodi:role="line"
             y="0"
             x="0 5.5599999"
             style="font-size:10px;font-variant:normal;font-weight:normal;writing-mode:lr-tb;fill:#666666;fill-opacity:1;fill-rule:nonzero;stroke:none;font-family:Liberation Sans;-inkscape-font-specification:LiberationSans">15</tspan>
        </text>
        <path
           id="path3166"
           style="fill:none;stroke:#666666;stroke-width:0.2;stroke-linecap:butt;stroke-linejoin:miter;stroke-miterlimit:3.25;stroke-opacity:1;stroke-dasharray:none"
           d="m 704.27,18.176 0,2.398"
           inkscape:connector-curvature="0" />
        <path
           id="path3168"
           style="fill:none;stroke:#666666;stroke-width:0.2;stroke-linecap:butt;stroke-linejoin:miter;stroke-miterlimit:3.25;stroke-opacity:1;stroke-dasharray:none"
           d="m 746.66,18.176 0,2.398"
           inkscape:connector-curvature="0" />
        <path
           id="path3170"
           style="fill:none;stroke:#666666;stroke-width:0.2;stroke-linecap:butt;stroke-linejoin:miter;stroke-miterlimit:3.25;stroke-opacity:1;stroke-dasharray:none"
           d="m 789.055,18.176 0,2.398"
           inkscape:connector-curvature="0" />
        <path
           id="path3172"
           style="fill:none;stroke:#666666;stroke-width:0.2;stroke-linecap:butt;stroke-linejoin:miter;stroke-miterlimit:3.25;stroke-opacity:1;stroke-dasharray:none"
           d="m 831.445,18.176 0,2.398"
           inkscape:connector-curvature="0" />
        <path
           id="path3174"
           style="fill:none;stroke:#666666;stroke-width:0.2;stroke-linecap:butt;stroke-linejoin:miter;stroke-miterlimit:3.25;stroke-opacity:1;stroke-dasharray:none"
           d="m 873.836,18.176 0,4"
           inkscape:connector-curvature="0" />
        <text
           id="text3176"
           transform="matrix(1,0,0,-1,867.58675,4.175084)">
          <tspan
             id="tspan3178"
             sodipodi:role="line"
             y="0"
             x="0 5.5599999"
             style="font-size:10px;font-variant:normal;font-weight:normal;writing-mode:lr-tb;fill:#666666;fill-opacity:1;fill-rule:nonzero;stroke:none;font-family:Liberation Sans;-inkscape-font-specification:LiberationSans">20</tspan>
        </text>
        <path
           id="path3180"
           style="fill:none;stroke:#666666;stroke-width:0.2;stroke-linecap:butt;stroke-linejoin:miter;stroke-miterlimit:3.25;stroke-opacity:1;stroke-dasharray:none"
           d="m 8.336,18.176 883.164,0"
           inkscape:connector-curvature="0" />
        <path
           id="path3182"
           style="fill:none;stroke:#666666;stroke-width:0.2;stroke-linecap:butt;stroke-linejoin:miter;stroke-miterlimit:3.25;stroke-opacity:1;stroke-dasharray:none"
           d="m 26,18.176 4,0"
           inkscape:connector-curvature="0" />
        <path
           id="path3184"
           style="fill:none;stroke:#666666;stroke-width:0.2;stroke-linecap:butt;stroke-linejoin:miter;stroke-miterlimit:3.25;stroke-opacity:1;stroke-dasharray:none"
           d="m 26,45.465 2.398,0"
           inkscape:connector-curvature="0" />
        <path
           id="path3186"
           style="fill:none;stroke:#666666;stroke-width:0.2;stroke-linecap:butt;stroke-linejoin:miter;stroke-miterlimit:3.25;stroke-opacity:1;stroke-dasharray:none"
           d="m 26,72.758 2.398,0"
           inkscape:connector-curvature="0" />
        <path
           id="path3188"
           style="fill:none;stroke:#666666;stroke-width:0.2;stroke-linecap:butt;stroke-linejoin:miter;stroke-miterlimit:3.25;stroke-opacity:1;stroke-dasharray:none"
           d="m 26,100.047 2.398,0"
           inkscape:connector-curvature="0" />
        <path
           id="path3190"
           style="fill:none;stroke:#666666;stroke-width:0.2;stroke-linecap:butt;stroke-linejoin:miter;stroke-miterlimit:3.25;stroke-opacity:1;stroke-dasharray:none"
           d="m 26,127.34 2.398,0"
           inkscape:connector-curvature="0" />
        <path
           id="path3192"
           style="fill:none;stroke:#666666;stroke-width:0.2;stroke-linecap:butt;stroke-linejoin:miter;stroke-miterlimit:3.25;stroke-opacity:1;stroke-dasharray:none"
           d="m 26,154.633 4,0"
           inkscape:connector-curvature="0" />
        <text
           id="text3194"
           transform="matrix(1,0,0,-1,0.75,150.63131)">
          <tspan
             id="tspan3196"
             sodipodi:role="line"
             y="0"
             x="0 5.5599999 8.3299999 13.89"
             style="font-size:10px;font-variant:normal;font-weight:normal;writing-mode:lr-tb;fill:#666666;fill-opacity:1;fill-rule:nonzero;stroke:none;font-family:Liberation Sans;-inkscape-font-specification:LiberationSans">0.05</tspan>
        </text>
        <path
           id="path3198"
           style="fill:none;stroke:#666666;stroke-width:0.2;stroke-linecap:butt;stroke-linejoin:miter;stroke-miterlimit:3.25;stroke-opacity:1;stroke-dasharray:none"
           d="m 26,181.922 2.398,0"
           inkscape:connector-curvature="0" />
        <path
           id="path3200"
           style="fill:none;stroke:#666666;stroke-width:0.2;stroke-linecap:butt;stroke-linejoin:miter;stroke-miterlimit:3.25;stroke-opacity:1;stroke-dasharray:none"
           d="m 26,209.215 2.398,0"
           inkscape:connector-curvature="0" />
        <path
           id="path3202"
           style="fill:none;stroke:#666666;stroke-width:0.2;stroke-linecap:butt;stroke-linejoin:miter;stroke-miterlimit:3.25;stroke-opacity:1;stroke-dasharray:none"
           d="m 26,236.504 2.398,0"
           inkscape:connector-curvature="0" />
        <path
           id="path3204"
           style="fill:none;stroke:#666666;stroke-width:0.2;stroke-linecap:butt;stroke-linejoin:miter;stroke-miterlimit:3.25;stroke-opacity:1;stroke-dasharray:none"
           d="m 26,263.797 2.398,0"
           inkscape:connector-curvature="0" />
        <path
           id="path3206"
           style="fill:none;stroke:#666666;stroke-width:0.2;stroke-linecap:butt;stroke-linejoin:miter;stroke-miterlimit:3.25;stroke-opacity:1;stroke-dasharray:none"
           d="m 26,291.086 4,0"
           inkscape:connector-curvature="0" />
        <text
           id="text3208"
           transform="matrix(1,0,0,-1,0.75,287.08754)">
          <tspan
             id="tspan3210"
             sodipodi:role="line"
             y="0"
             x="0 5.5599999 8.3299999 13.89"
             style="font-size:10px;font-variant:normal;font-weight:normal;writing-mode:lr-tb;fill:#666666;fill-opacity:1;fill-rule:nonzero;stroke:none;font-family:Liberation Sans;-inkscape-font-specification:LiberationSans">0.10</tspan>
        </text>
        <path
           id="path3212"
           style="fill:none;stroke:#666666;stroke-width:0.2;stroke-linecap:butt;stroke-linejoin:miter;stroke-miterlimit:3.25;stroke-opacity:1;stroke-dasharray:none"
           d="m 26,318.379 2.398,0"
           inkscape:connector-curvature="0" />
        <path
           id="path3214"
           style="fill:none;stroke:#666666;stroke-width:0.2;stroke-linecap:butt;stroke-linejoin:miter;stroke-miterlimit:3.25;stroke-opacity:1;stroke-dasharray:none"
           d="m 26,345.672 2.398,0"
           inkscape:connector-curvature="0" />
        <path
           id="path3216"
           style="fill:none;stroke:#666666;stroke-width:0.2;stroke-linecap:butt;stroke-linejoin:miter;stroke-miterlimit:3.25;stroke-opacity:1;stroke-dasharray:none"
           d="m 26,372.961 2.398,0"
           inkscape:connector-curvature="0" />
        <path
           id="path3218"
           style="fill:none;stroke:#666666;stroke-width:0.2;stroke-linecap:butt;stroke-linejoin:miter;stroke-miterlimit:3.25;stroke-opacity:1;stroke-dasharray:none"
           d="m 26,400.254 2.398,0"
           inkscape:connector-curvature="0" />
        <path
           id="path3220"
           style="fill:none;stroke:#666666;stroke-width:0.2;stroke-linecap:butt;stroke-linejoin:miter;stroke-miterlimit:3.25;stroke-opacity:1;stroke-dasharray:none"
           d="m 26,427.543 4,0"
           inkscape:connector-curvature="0" />
        <text
           id="text3222"
           transform="matrix(1,0,0,-1,0.75,423.54377)">
          <tspan
             id="tspan3224"
             sodipodi:role="line"
             y="0"
             x="0 5.5599999 8.3299999 13.89"
             style="font-size:10px;font-variant:normal;font-weight:normal;writing-mode:lr-tb;fill:#666666;fill-opacity:1;fill-rule:nonzero;stroke:none;font-family:Liberation Sans;-inkscape-font-specification:LiberationSans">0.15</tspan>
        </text>
        <path
           id="path3226"
           style="fill:none;stroke:#666666;stroke-width:0.2;stroke-linecap:butt;stroke-linejoin:miter;stroke-miterlimit:3.25;stroke-opacity:1;stroke-dasharray:none"
           d="m 26,454.836 2.398,0"
           inkscape:connector-curvature="0" />
        <path
           id="path3228"
           style="fill:none;stroke:#666666;stroke-width:0.2;stroke-linecap:butt;stroke-linejoin:miter;stroke-miterlimit:3.25;stroke-opacity:1;stroke-dasharray:none"
           d="m 26,482.125 2.398,0"
           inkscape:connector-curvature="0" />
        <path
           id="path3230"
           style="fill:none;stroke:#666666;stroke-width:0.2;stroke-linecap:butt;stroke-linejoin:miter;stroke-miterlimit:3.25;stroke-opacity:1;stroke-dasharray:none"
           d="m 26,509.418 2.398,0"
           inkscape:connector-curvature="0" />
        <path
           id="path3232"
           style="fill:none;stroke:#666666;stroke-width:0.2;stroke-linecap:butt;stroke-linejoin:miter;stroke-miterlimit:3.25;stroke-opacity:1;stroke-dasharray:none"
           d="m 26,536.707 2.398,0"
           inkscape:connector-curvature="0" />
        <path
           id="path3234"
           style="fill:none;stroke:#666666;stroke-width:0.2;stroke-linecap:butt;stroke-linejoin:miter;stroke-miterlimit:3.25;stroke-opacity:1;stroke-dasharray:none"
           d="m 26,564 4,0"
           inkscape:connector-curvature="0" />
        <text
           id="text3236"
           transform="matrix(1,0,0,-1,0.75,560)">
          <tspan
             id="tspan3238"
             sodipodi:role="line"
             y="0"
             x="0 5.5599999 8.3299999 13.89"
             style="font-size:10px;font-variant:normal;font-weight:normal;writing-mode:lr-tb;fill:#666666;fill-opacity:1;fill-rule:nonzero;stroke:none;font-family:Liberation Sans;-inkscape-font-specification:LiberationSans">0.20</tspan>
        </text>
        <path
           id="path3240"
           style="fill:none;stroke:#666666;stroke-width:0.2;stroke-linecap:butt;stroke-linejoin:miter;stroke-miterlimit:3.25;stroke-opacity:1;stroke-dasharray:none"
           d="M 26,18.176 26,564"
           inkscape:connector-curvature="0" />
      </g>
    </g>
  </g>
</svg>
